<svg xmlns="http://www.w3.org/2000/svg" xmlns:xlink="http://www.w3.org/1999/xlink" viewBox="0 0 176 170.91"><defs><style>.cls-1{fill:none;clip-rule:evenodd;}.cls-2{clip-path:url(#clip-path);}.cls-3{fill:#373b38;}.cls-4{clip-path:url(#clip-path-2);}.cls-5{fill:#505050;}.cls-6{clip-path:url(#clip-path-3);}.cls-7{clip-path:url(#clip-path-4);}.cls-8{clip-path:url(#clip-path-5);}.cls-9{fill:#3d4b4e;}.cls-10{clip-path:url(#clip-path-6);}.cls-11{fill:#384549;}.cls-12{clip-path:url(#clip-path-7);}.cls-13{clip-path:url(#clip-path-8);}.cls-14{fill:#f5cdb8;}.cls-15{clip-path:url(#clip-path-9);}.cls-16{clip-path:url(#clip-path-10);}.cls-17{clip-path:url(#clip-path-11);}.cls-18{clip-path:url(#clip-path-12);}.cls-19{clip-path:url(#clip-path-13);}.cls-20{fill:#e9bda7;}.cls-21{clip-path:url(#clip-path-14);}.cls-22{fill:#eebca3;}.cls-23{clip-path:url(#clip-path-15);}.cls-24{clip-path:url(#clip-path-16);}.cls-25{fill:#e6b8a1;}.cls-26{clip-path:url(#clip-path-17);}.cls-27{clip-path:url(#clip-path-18);}.cls-28{clip-path:url(#clip-path-19);}.cls-29{clip-path:url(#clip-path-20);}.cls-30{clip-path:url(#clip-path-21);}.cls-31{clip-path:url(#clip-path-22);}.cls-32{clip-path:url(#clip-path-23);}.cls-33{clip-path:url(#clip-path-24);}.cls-34{fill:#d4a995;}.cls-35{clip-path:url(#clip-path-25);}.cls-36{clip-path:url(#clip-path-26);}.cls-37{clip-path:url(#clip-path-27);}.cls-38{clip-path:url(#clip-path-28);}.cls-39{fill:#91503f;}.cls-40{clip-path:url(#clip-path-29);}.cls-41{fill:#787a78;}.cls-42{clip-path:url(#clip-path-30);}.cls-43{fill:#e4e6e3;}.cls-44{clip-path:url(#clip-path-31);}.cls-45{clip-path:url(#clip-path-32);}.cls-46{fill:#654032;}.cls-47{clip-path:url(#clip-path-33);}.cls-48{clip-path:url(#clip-path-34);}.cls-49{fill:#733b2a;}.cls-50{clip-path:url(#clip-path-35);}.cls-51{fill:#d61d4a;}.cls-52{clip-path:url(#clip-path-36);}.cls-53{fill:#fff;}.cls-54{clip-path:url(#clip-path-37);}.cls-55{fill:#656664;}.cls-56{clip-path:url(#clip-path-38);}.cls-57{fill:#975540;}.cls-58{clip-path:url(#clip-path-39);}.cls-59{clip-path:url(#clip-path-40);}.cls-60{clip-path:url(#clip-path-41);}.cls-61{fill:#e0b49d;}.cls-62{clip-path:url(#clip-path-42);}.cls-63{fill:#767574;}.cls-64{clip-path:url(#clip-path-43);}.cls-65{clip-path:url(#clip-path-44);}.cls-66{fill:#2e2e2c;}.cls-67{clip-path:url(#clip-path-45);}.cls-68{clip-path:url(#clip-path-46);}.cls-69{fill:#5b3a2e;}.cls-70{clip-path:url(#clip-path-47);}.cls-71{clip-path:url(#clip-path-48);}.cls-72{clip-path:url(#clip-path-49);}.cls-73{clip-path:url(#clip-path-50);}.cls-74{fill:#77624c;}.cls-75{clip-path:url(#clip-path-51);}.cls-76{clip-path:url(#clip-path-52);}.cls-77{clip-path:url(#clip-path-53);}.cls-78{clip-path:url(#clip-path-54);}.cls-79{clip-path:url(#clip-path-55);}.cls-80{fill:#343532;}.cls-81{clip-path:url(#clip-path-56);}.cls-82{clip-path:url(#clip-path-57);}.cls-83{fill:#e8beaa;}.cls-84{clip-path:url(#clip-path-58);}.cls-85{fill:#e1b8a4;}.cls-86{clip-path:url(#clip-path-59);}.cls-87{fill:#d3ab97;}.cls-88{clip-path:url(#clip-path-60);}.cls-89{clip-path:url(#clip-path-61);}.cls-90{clip-path:url(#clip-path-62);}.cls-91{clip-path:url(#clip-path-63);}.cls-92{clip-path:url(#clip-path-64);}.cls-93{clip-path:url(#clip-path-65);}.cls-94{clip-path:url(#clip-path-66);}.cls-95{fill:#ab6740;}.cls-96{clip-path:url(#clip-path-67);}.cls-97{clip-path:url(#clip-path-68);}.cls-98{fill:#b96439;}.cls-99{clip-path:url(#clip-path-69);}.cls-100{fill:#ad5f2e;}.cls-101{clip-path:url(#clip-path-70);}.cls-102{clip-path:url(#clip-path-71);}.cls-103{clip-path:url(#clip-path-72);}.cls-104{fill:#f3c3ad;}.cls-105{clip-path:url(#clip-path-73);}.cls-106{fill:#d3b3a0;}.cls-107{clip-path:url(#clip-path-74);}.cls-108{clip-path:url(#clip-path-75);}.cls-109{clip-path:url(#clip-path-76);}.cls-110{clip-path:url(#clip-path-77);}.cls-111{clip-path:url(#clip-path-78);}.cls-112{clip-path:url(#clip-path-79);}.cls-113{clip-path:url(#clip-path-80);}.cls-114{clip-path:url(#clip-path-81);}.cls-115{clip-path:url(#clip-path-82);}.cls-116{clip-path:url(#clip-path-83);}.cls-117{clip-path:url(#clip-path-84);}.cls-118{clip-path:url(#clip-path-85);}.cls-119{clip-path:url(#clip-path-86);}.cls-120{clip-path:url(#clip-path-87);}.cls-121{fill:#575556;}.cls-122{clip-path:url(#clip-path-88);}.cls-123{clip-path:url(#clip-path-89);}.cls-124{clip-path:url(#clip-path-90);}.cls-125{clip-path:url(#clip-path-91);}</style><clipPath id="clip-path"><path class="cls-1" d="M132.1,148.91c.55.55,1.91,2.45,2.48,2.91a31.38,31.38,0,0,0,5.76,3.78c1.95.79,6.27,2.31,6.46,2.91s.89,3-2.13,3.36-19-1.38-18.67-2-.31-9.74.28-9.74,5.82-1.2,5.82-1.2"/></clipPath><clipPath id="clip-path-2"><path class="cls-1" d="M146.7,159.09a.77.77,0,0,1,.1.15c.18.65.89,3.27-2.13,3.63s-19-1.49-18.67-2.19a14.41,14.41,0,0,0,.09-2.77,6.71,6.71,0,0,0,2.23,1.91c1.74.75,13.73,2.05,15.34,1.63,1-.26,2.13-1.58,3-2.36"/></clipPath><clipPath id="clip-path-3"><path class="cls-1" d="M114.9,150.4c.09.61-.16,5.35.17,6.23s2,5.65,1.93,7.32c-.08,3.29-14.3,1.86-14,0a36.68,36.68,0,0,1,2.44-7.54c.5-.79,3-7.45,3.43-7.45s6,1.49,6,1.49"/></clipPath><clipPath id="clip-path-4"><path class="cls-1" d="M116.87,162.91a5.29,5.29,0,0,1,.13,1.14c-.08,3.12-14.3,1.76-14-.05.06-.3.14-.67.24-1.07a35.19,35.19,0,0,0,5.16.74,35.08,35.08,0,0,0,8.47-.76"/></clipPath><clipPath id="clip-path-5"><path class="cls-1" d="M116.86,124.12c-1.1,1.6-11.42,26-11.86,31.68,0,0,11.23,1.74,11.15.87s7.22-29.42,7.22-29.42l6.52-29.72s-.15,30.15-.15,31.37-3.75,26.19-2.88,26,10.39-.87,10.13-2.18,0-25.59-.13-26.11-.47-33.72-.47-33.72l-16.09,2.9c0-2.17-1.62,25.67-3.44,28.31"/></clipPath><clipPath id="clip-path-6"><path class="cls-1" d="M116.87,123.58c-1.1,1.59-11.43,25.73-11.87,31.39,0,0,4.16.64,7.4.94l3.75-.08s-7.78-2.51-8.09-2.9,0-2.42.74-5.05,8.37-21.31,8.59-22,2.38-2.11,2.65-2.11-.44-2.55-.44-2.55,1.48-17,1.74-17.64,7-2.15,7.66-2.2v0c-.51-.13-8.36-.89-8.36-.89l-.69-.52c-.58,7.47-1.79,21.82-3.08,23.67"/></clipPath><clipPath id="clip-path-7"><path class="cls-1" d="M129.06,101.42c0,8.3-.13,26.45-.13,27.39,0,1.22-3.65,26.27-2.8,26.1s9.74-.84,9.87-2.1c-1.92-.15-7.45-.62-7.62-1.09s1.56-20,1.69-20.53,3.12-3.28,3.12-3.28a16.72,16.72,0,0,1-1.69-3.66c-.76-2.28.51-24.55.76-25.34l-3.2,2.51"/></clipPath><clipPath id="clip-path-8"><path class="cls-1" d="M117.75,58.91c-1.7.86-7.11,14.4-7.49,15.25-.71,1.61.24,22.69.26,23.33,0,.86,3.87.26,3.35-.51-.75-1.11-.34-18.69.16-21.11.14-.71,4-11.82,4-11.82l-.25-5.14"/></clipPath><clipPath id="clip-path-9"><path class="cls-1" d="M111.25,94.91c.22.48,2.2-.13,2.62.51,0,0,.11,1.46.3,1.54a4.65,4.65,0,0,1,2.78,4.82c-.11.65-.45.93-.55,1s-.46-.62-.62-.39-.19,1-.36,1.11c-.39.19-.79-.83-.83-.73s-.78,1-1.19,1.1-.46-1-.56-.95-1,1.08-1.4,1-.74-1.52-.88-1.75a3.8,3.8,0,0,1-.47-2.74,20.25,20.25,0,0,1,1-2.7l.2-1.81"/></clipPath><clipPath id="clip-path-10"><path class="cls-1" d="M116,101l.93,1.4s0,1.62.08,2.74a11.53,11.53,0,0,1-.59,4.29c-.43,1-.92-.77-.8-1.29a15.48,15.48,0,0,0,.3-2.33c0-.52-.29-2.81-.29-2.81a33.77,33.77,0,0,1-.13,4c-.19.74-.73,4-1.23,3.89s-.63-.9-.54-1.28,1.15-5.28.92-5.53a1.68,1.68,0,0,1-.32-.68s-.4,3.76-.72,4.93-.73,2.29-1.32,2,.2-2.47.31-3a34,34,0,0,0-.2-3.88,29.83,29.83,0,0,1-.76,4.12c-.32.68-1.1,2.41-1.52,1.8s.67-2.65.6-3.57a14.14,14.14,0,0,0-.32-2.39c-.09-.11-.09-2.52,1-2.5L116,101"/></clipPath><clipPath id="clip-path-11"><path class="cls-1" d="M137.2,59.35l11.08,5.06,10.4-11.5L162,55.23s-10.92,13-12.32,13.64S135,62.72,135,62.72l2.2-3.37"/></clipPath><clipPath id="clip-path-12"><path class="cls-1" d="M161.36,54.91c-.84-.31-3-1.4-3.35-2.23-.13-.35.79-2.25,1.77-4.14s1.93-3.58,2.14-4c0,0,8.43-4.86,8.7-4.6a1.16,1.16,0,0,1,.14,1.59c-.31.55-2.94,1.77-4.62,2.86a5.09,5.09,0,0,0-1.4,1.42,8.55,8.55,0,0,1,3.07,2.06c.91,1.2,1.38,4.23,1.07,4.61s-2.67.5-3.39.73c-.36.11-.62,1.63-4.13,1.72"/></clipPath><clipPath id="clip-path-13"><path class="cls-1" d="M161,55.91c-.19-.06-.45-.17-.73-.29A9.4,9.4,0,0,0,159,54.05a5.47,5.47,0,0,0,2.25,1.35c1,.19,3.44-1.49,3.44-1.49l.31.48-.1,0c-.33.1-.58,1.42-3.86,1.5"/></clipPath><clipPath id="clip-path-14"><path class="cls-1" d="M169.79,40.91a1.4,1.4,0,0,1,0,1.51c-.29.57-2.76,1.87-4.34,3a5.2,5.2,0,0,0-1.31,1.5A8.11,8.11,0,0,1,167,49.14a6.17,6.17,0,0,1,.71,1.78,9.6,9.6,0,0,0-.22,1.34c-.07.86-1.18,2.61-2.17,2.65s-1.08-.45-1.08-.56-.08-.18-.35-.69-.1-1.09-.27-1.07S162,52,162,51.61s.91-1.13,1.28-2.21.27-2.76,1-3.59,4.51-3,5.15-3.9a2.21,2.21,0,0,0,.34-1"/></clipPath><clipPath id="clip-path-15"><path class="cls-1" d="M168.74,53.82c-.88.88-3.44,1.67-3.72.51-.17-.69.93-.86,1.26-1a13,13,0,0,0,1.54-1.39,1.18,1.18,0,0,1,.92,1.91"/></clipPath><clipPath id="clip-path-16"><path class="cls-1" d="M165.43,54.8c-.1-.21-.23-.33-.2-.48a2.4,2.4,0,0,1,1-.78,10.59,10.59,0,0,0,2.31-1.4,1.48,1.48,0,0,0-.68-.23,13.92,13.92,0,0,1-1.58,1.39c-.35.17-1.48.34-1.3,1a.69.69,0,0,0,.41.47Zm3.43-1-.2.17-.5.32a4.17,4.17,0,0,1-2.56.55,6.57,6.57,0,0,0,2.17-.53c.35-.19.89-.52,1.23-.7a1.33,1.33,0,0,1-.14.19Z"/></clipPath><clipPath id="clip-path-17"><path class="cls-1" d="M169.83,50.83c-.88,1.26-4,2.87-4.74,1.64-.45-.74.95-1.24,1.34-1.53a16,16,0,0,0,1.58-2c1.68-.19,2.33,1.19,1.82,1.9"/></clipPath><clipPath id="clip-path-18"><path class="cls-1" d="M165.77,52.89c-.2-.21-.4-.31-.41-.49a2.81,2.81,0,0,1,1.09-1.17A13.13,13.13,0,0,0,169,49a2.34,2.34,0,0,0-.94-.07,16.55,16.55,0,0,1-1.6,2c-.39.29-1.8.79-1.35,1.53a.91.91,0,0,0,.68.42Zm4.1-2.06a1.5,1.5,0,0,1-.19.25l-.55.51A5.86,5.86,0,0,1,166,52.91a8.67,8.67,0,0,0,2.63-1.2c.39-.3,1-.83,1.36-1.13a.75.75,0,0,1-.13.25Z"/></clipPath><clipPath id="clip-path-19"><path class="cls-1" d="M168,48.29c-.14,1.54-1.74,4.32-2.77,3.46-.62-.52.19-1.56.35-2a19.11,19.11,0,0,0,.34-2.54A1.26,1.26,0,0,1,168,48.29"/></clipPath><clipPath id="clip-path-20"><path class="cls-1" d="M165.89,51.87c-.23-.12-.41-.14-.49-.3a3.18,3.18,0,0,1,.31-1.54,14.12,14.12,0,0,0,.91-3.12,1.53,1.53,0,0,0-.7.31,19.44,19.44,0,0,1-.34,2.55c-.16.42-1,1.46-.35,2a.64.64,0,0,0,.66.12ZM168,48.28c0,.1,0,.21-.05.31s-.12.45-.18.7a5,5,0,0,1-1.7,2.5,7.85,7.85,0,0,0,1.4-2.18c.15-.45.36-1.18.51-1.62a1.46,1.46,0,0,1,0,.29Z"/></clipPath><clipPath id="clip-path-21"><path class="cls-1" d="M167,47.29c-.14,1.54-1.74,4.32-2.77,3.46-.62-.52.19-1.56.35-2a19.11,19.11,0,0,0,.34-2.54A1.26,1.26,0,0,1,167,47.29"/></clipPath><clipPath id="clip-path-22"><path class="cls-1" d="M164.89,50.87c-.23-.12-.41-.14-.49-.3a3.18,3.18,0,0,1,.31-1.54,14.12,14.12,0,0,0,.91-3.12,1.53,1.53,0,0,0-.7.31,19.44,19.44,0,0,1-.34,2.55c-.16.42-1,1.46-.35,2a.64.64,0,0,0,.66.12ZM167,47.28c0,.1,0,.21-.05.31s-.12.45-.19.7a4.88,4.88,0,0,1-1.69,2.5,7.85,7.85,0,0,0,1.4-2.18c.15-.45.36-1.18.51-1.62a1.46,1.46,0,0,1,0,.29Z"/></clipPath><clipPath id="clip-path-23"><path class="cls-1" d="M159.66,48.34a7.32,7.32,0,0,1,2.48-1.43,24.62,24.62,0,0,1,2.42.52s2.58,3.09,2.43,3.31-.65.61-1.64.27c-.44-.16-1.66-1.27-1.54-1.59l-.88.35c0-.08.19,2.48-1.88,3.11-.75.23-1.94-.79-2-1.87a6.6,6.6,0,0,1,.65-2.67"/></clipPath><clipPath id="clip-path-24"><path class="cls-1" d="M166.66,51.13a1.87,1.87,0,0,1-1.34,0c-.45-.15-1.7-1.19-1.57-1.49l-.9.33a2.82,2.82,0,0,1-1.92,2.91,1.29,1.29,0,0,1-.93-.17,5,5,0,0,0,1.59-.71c.86-.62.91-2.58,1-2.58a8.36,8.36,0,0,0,1.14-.09c.06,0,.44-.45.53-.42s.18.79.32,1.09a2.3,2.3,0,0,0,1.54.89c.74.14.9,0,.9,0l-.34.26"/></clipPath><clipPath id="clip-path-25"><path class="cls-1" d="M125.42,54.91,119,56.62l-2.67.72L111,72l6.07,3.28,2.9-7.56c.9,7.84.08,21.88-1.31,35.2,0,0,19.68-1.28,19.6-1.8-.51-3-2.78-33.95-2.3-33.71l6.67,3.28L146,61.91l-11.74-4.86-4.89-1.82-4-.32"/></clipPath><clipPath id="clip-path-26"><path class="cls-1" d="M123.38,45.91l0,7.34a1.71,1.71,0,0,1-1.42,2c-.12,0,5,5.6,7.2,5.71a2.84,2.84,0,0,0,2.56-1.06c.45-.85.5-3.88-2-4.66-2,.09-2.35-6.64-2.75-6.77s-3.65-2.51-3.65-2.51"/></clipPath><clipPath id="clip-path-27"><path class="cls-1" d="M136.86,14.9c-.17,1.56,4.4,11.24,3.88,11.41,0,0-2.85,10.65-2.56,12,1.39,6.25,2.45,10.32,1.64,10.49-1.56.32-16.94,1.43-17.2.74s-4.27-2.26-4.27-3.05S115.74,36,115.74,36l-3-14.25-1.39-7.21,25.56.32"/></clipPath><clipPath id="clip-path-28"><path class="cls-1" d="M117.74,32.61c-.43-.17-2.52-15.12-2-15.47s14.74,3,20.73,2.52C147.55,18.79,146.06,7.14,147,5c0,0-7.95,4.8-7.69,4.36s1.48-4.34,1.48-4.34c-6.53,4-23.51-3.95-27.53,2.69L112,9.84l-3.35.78-3.27,8.65,8.19,13.25,4.22.09"/></clipPath><clipPath id="clip-path-29"><path class="cls-1" d="M109,26.69l8.13-1.59,3.78-.19s.26,5.44-.09,5.26-11.48,1.74-11.48,1.74L109,26.69"/></clipPath><clipPath id="clip-path-30"><path class="cls-1" d="M116.94,25.91c-.41,0-9,1.09-8.94,1.21s0,2.79,0,2.79l9-1.52-.06-2.48"/></clipPath><clipPath id="clip-path-31"><path class="cls-1" d="M115,30.07c-1.22-1.88-4.66-1.09-6.31-.29-2.58,1.25,2.69,9.61,5.1,9.11.58-.12,3.25-1.08,3.21-1.45s-2-7.37-2-7.37"/></clipPath><clipPath id="clip-path-32"><path class="cls-1" d="M136,39a2.19,2.19,0,0,1,1.86,1.63l1,5.71-1.22.22-14.06.78-1.75-5,5.53-3.2c.82-.47,6.16-.34,8.62-.16Zm-21-8.94c0,.17,1,3.76,1.78,7.63,0,.26-.84.52-.82.61,1.28,4.66,2,7.84,2,7.84s3.86,4.1,4.49,4.1c.36,0,11.54,1.64,11.54,1.64s6.09-2.67,6-2.76-.72-4.71-1.17-8A6.5,6.5,0,0,0,137.44,38l-11.34-.23L120,40.18l-3.73-10.27-1.22.18Z"/></clipPath><clipPath id="clip-path-33"><path class="cls-1" d="M146.14,22c-2.52-.44-29.71,1.15-29.71,1.15L115,27.19l1.73,8.11a38.47,38.47,0,0,0,3.67,2.39c8.17.73,17.52-.55,25.8-1.18.7-.06,2.84-3,2.8-3.53s0-8.14,0-8.14L146.14,22"/></clipPath><clipPath id="clip-path-34"><path class="cls-1" d="M136.89,40.91,125,41.4c-.31,3.89,2,5.37,2.46,5.37s9.27.6,9.47-.67-.41-3.38-.07-5.19"/></clipPath><clipPath id="clip-path-35"><path class="cls-1" d="M125,41.92c.19,2.78,2,3.86,2.4,3.86s4,.23,6.6.08a7.79,7.79,0,0,0-2.8-2.63,12.07,12.07,0,0,0-6.2-1.31"/></clipPath><clipPath id="clip-path-36"><path class="cls-1" d="M135.69,43.53c.37,0,.33-1.65.28-2.62L125,41.39a8.61,8.61,0,0,0,.16,2.52c.82,0,10-.33,10.5-.38"/></clipPath><clipPath id="clip-path-37"><path class="cls-1" d="M146.43,22c-2.05-.4-24.27,1.23-24.27,1.23L121,26.88l1.22,6.4a6.42,6.42,0,0,0,3.1,3.44c6.64.66,14.91-.55,21.64-1.13.57-.05,2.07-2.48,2-3s0-8,0-8L146.43,22"/></clipPath><clipPath id="clip-path-38"><path class="cls-1" d="M105,19.6l4.5,7.31,2.5-.46-1.71-9.35-2,5s-.45-7.08,0-8.07S105,19.6,105,19.6"/></clipPath><clipPath id="clip-path-39"><path class="cls-1" d="M115.84,17.37c.52-.35,14.69,3.05,20.67,2.57a13.19,13.19,0,0,0,1.77-.26c9.1-1.95,7.83-12.62,8.67-14.63,0,0-3.84,7.59-7.44,11a10.35,10.35,0,0,1-2,1.5,6.62,6.62,0,0,1-4.94.85l2.13-2.21a12.29,12.29,0,0,1-7.86,1.54c-4.6-.62-10.33-1.5-10.33-1.5s-.81-.66-1.72-1.43a15.76,15.76,0,0,1-2.49-2.38c-.16-.5,0,.68.6,2.36,0,.11.09.23.14.34.73,1.86,1.21,3.15,1.21,3.15s.33,4.05.74,7.51l1.53-.28c-.52-3.94-.93-7.95-.67-8.13"/></clipPath><clipPath id="clip-path-40"><path class="cls-1" d="M125.23,10.3c4.94-.54,9.37-1.16,9.37-1.16L130,12.82a20.63,20.63,0,0,0,6.64-3.59c3.3-2.65,4.16-4.17,4.16-4.17-6.51,4.12-23.43-4-27.43,2.75l-1.26,2.12a33.08,33.08,0,0,0,4.43-2c3.08-1.59,8.68,0,9.29,0s-8,1.9-8,1.9,2.52,1.07,7.47.54"/></clipPath><clipPath id="clip-path-41"><path class="cls-1" d="M110,32.25c-.24,1.37,2.14,5.34,2.8,5.58s2.1-.13,2.17-.81a2,2,0,0,0-.84-1.66,1.19,1.19,0,0,1-.18-1.63c.38-.45.42-.69.13-1.14-1.27-1.92-3.73-2.41-4.08-.34"/></clipPath><clipPath id="clip-path-42"><path class="cls-1" d="M122.46,33.41a10.66,10.66,0,0,0,2.88,2,21.08,21.08,0,0,0,5.59.51,49.82,49.82,0,0,0,7-1c-.37-.08-10.85.15-12.19-.62s-2-1.37-2.12-1.67-1.38-6-1.29-6.3.9-2.56.6-2.35-2,2.65-2,2.65l1.46,6.84"/></clipPath><clipPath id="clip-path-43"><path class="cls-1" d="M124.41,51.05l-1-.14,0,3.19A1.73,1.73,0,0,1,122.19,56l-.19.06c-.11,0,4.76,5.33,7.06,5.81l1.09,0a3.39,3.39,0,0,0,.85-.24c-1.17,0-1.41.64-3.63-1-2.82-2.06-4.43-3.92-3.86-5a9.1,9.1,0,0,0,.79-1.8,8.53,8.53,0,0,0,.11-2.83"/></clipPath><clipPath id="clip-path-44"><path class="cls-1" d="M121.53,83.11c-.26-6.11.35-17.83.35-17.83a15.79,15.79,0,0,0-1.28,1.46c0,.17-.2-3.9-.17-4.83-.14.9-.91,4.69-.91,5.24a41.71,41.71,0,0,1-3.19,7.06,6.74,6.74,0,0,1-1.31-.5c-1.1-.48-2.64-1.18-3.65-1.64l-.32-.15,0,.13.31.17,5.71,3.1,2.86-7.54c.89,7.83.09,21.83-1.29,35.13l.86-.06c1.66-.11,5.44-.37,9.17-.67l.88-.07c2.55-.21,5-.43,6.59-.62l.27,0,1.64-.35h-1.91l-6.58,0c-.08,0-.07-.12,0-.27a4.21,4.21,0,0,1,.57-.87s-.19,0-.57,0l-.41,0c-2.08.23-6.8.8-7.7,0-.41-.36-.48-1.84-.41-3.88.13-3.66.71-9.11.54-13"/></clipPath><clipPath id="clip-path-45"><path class="cls-1" d="M135.57,66.83l6.52,3.08.91-2.29a11.9,11.9,0,0,1-3.29-.85A14,14,0,0,1,135,62.91a33.74,33.74,0,0,1,.57,3.92"/></clipPath><clipPath id="clip-path-46"><path class="cls-1" d="M127.13,49.93c-1-.18-2.08-.4-3-.59l-1-.2L122,48.91l-.08-.08a39.61,39.61,0,0,1-3-3c-.47-.66-1.75-7.39-1.75-7.39s-.81-3.75-1.51-6.41c-.25-.92-.49-1.71-.67-2.16,0,.09.26,1,.56,2.16h0c.36,1.44.83,3.43,1.22,5.51,0,.21-.47.4-.71.53-.07,0-.12.07-.11.09,1.25,4.6,2,7.78,2,7.91h0l.63.66c1.13,1.18,3.39,3.48,3.86,3.47l.64.08,1,.14,3.24.46,6.68,1s6.1-2.7,6-2.79a39.57,39.57,0,0,1-.63-4c-.05.5-.09,1-.14,1.44l-.16,1.82c0,.13,0,.21,0,.23,0,.23-3.65,1.12-3.65,1.12l-1.11-1.66-1.65.91a15.08,15.08,0,0,1-2.93,1.36,20.55,20.55,0,0,1-2.58-.4"/></clipPath><clipPath id="clip-path-47"><path class="cls-1" d="M144,66.85c2.78,1.27,5.32,2.28,5.88,2,1.13-.52,8.61-9.54,11.12-12.6a7.9,7.9,0,0,1-.75-.36c0,.24-10.55,12.19-11.9,11.79a34.86,34.86,0,0,1-4-1.9l-.39,1"/></clipPath><clipPath id="clip-path-48"><path class="cls-1" d="M115.9,61.55c.39-1.67,1-4.11,1-4.11s2.7-1.06,4.12-1.53l-2,.53-2.71.7L111,70.91l1.66-2.76c1.32-2.21,2.93-4.94,2.92-5.07s.13-.71.32-1.53"/></clipPath><clipPath id="clip-path-49"><path class="cls-1" d="M111.81,95.3l-.52-20.92L113,72.59l-1.36-.68c-.54,1.2-.91,2-1,2.23-.78,1.62.26,22.77.28,23.41a16.5,16.5,0,0,0-.81,2.24,3.67,3.67,0,0,0,.52,2.84c.12.18.45,1.08.73,1.54,0,.42.1.91.14,1.32.07.88-1,2.84-.61,3.42a7.76,7.76,0,0,1,1-2.71l0-2.35a16.34,16.34,0,0,1-.68-1.86,3.73,3.73,0,0,1-.22-1.65c.16-.65.49-1.74.69-2.38l.17-.52-.06-2.14"/></clipPath><clipPath id="clip-path-50"><path class="cls-1" d="M42.19,153.91c-.52.51-1.82,2.26-2.36,2.68a30.22,30.22,0,0,1-5.48,3.5c-1.87.72-6,2.13-6.16,2.68s-.85,2.8,2,3.1S48.3,164.6,48,164s.3-9-.26-9-5.55-1.11-5.55-1.11"/></clipPath><clipPath id="clip-path-51"><path class="cls-1" d="M28.29,162.85a.61.61,0,0,0-.09.12c-.18.52-.88,2.62,2.1,2.9s19-1,18.7-1.54a6.09,6.09,0,0,0-.36-2.42,6.58,6.58,0,0,1-2.2,1.53c-1.72.59-13.55,1.63-15.14,1.3-1-.21-2.11-1.26-3-1.89"/></clipPath><clipPath id="clip-path-52"><path class="cls-1" d="M72.19,153.91c-.52.51-1.82,2.26-2.36,2.68a30.22,30.22,0,0,1-5.48,3.5c-1.87.72-6,2.13-6.16,2.68s-.85,2.8,2,3.1S78.3,164.6,78,164s.3-9-.26-9-5.55-1.11-5.55-1.11"/></clipPath><clipPath id="clip-path-53"><path class="cls-1" d="M58.29,162.86a.39.39,0,0,0-.09.11c-.18.52-.88,2.62,2.09,2.9s18.28-1.15,18.61-1.79a2.64,2.64,0,0,0-.33-2.17,6.48,6.48,0,0,1-2.2,1.53c-1.71.59-13.5,1.63-15.08,1.3-1-.21-2.1-1.26-3-1.88"/></clipPath><clipPath id="clip-path-54"><path class="cls-1" d="M58.42,94.91C54.76,96.51,36,123.2,36,123.2s0,36.21,1,35.89,12.67.57,12.67.57-7.16-35.26-5.68-36.41,15.14-19.61,15.14-19.61L54,125.06l12.71,29.83-.46,5L79,158.23,61.19,122.44s10.65-22.7,10.48-24-13.25-3.54-13.25-3.54"/></clipPath><clipPath id="clip-path-55"><path class="cls-1" d="M66,159.77c3.93,2.27,13.08.83,13-1.54l-.58-3.29L61,122.44s10.56-23,10.44-23.88-1.89-1.07-4.16-1.65c.34,3.7-4.41,16.85-6.06,20.5s-3.66,5-3.12,5.5,2.09,2.25,2.09,2.25,17,28.06,17.12,31.16c.11,2.11-8.79,2.1-11.3,3.45"/></clipPath><clipPath id="clip-path-56"><path class="cls-1" d="M48.65,159.8c.13-.25-7.07-35.16-5.61-36.31S58,104,58,104l-1.44-2S46.15,116.45,44,119.65s-3.18,3.37-3,3.78,2.68,20.28,3.7,25.95,1.62,7.31-1,8.26-8.07,1.24-7.69,1.45c.55,1.6,11.76,2.79,12.63.71"/></clipPath><clipPath id="clip-path-57"><path class="cls-1" d="M28,57c-1-.8-4.23-2.39-5.74-5.2s-.63-6.29-2.33-5.86-1.18,7.26-1.68,7.32-6.34-.69-9-1.09c-2.31-.35-3.78-.61-4.22.18-.65,1.14,3.45,2,4.13,2.21,2.82.77,5,1.11,4.56,1.34,0,1.62.47,7.19.81,7.39a5,5,0,0,0,2.71.55,18.34,18.34,0,0,0,6.12-.49C25.73,62.57,28,57,28,57"/></clipPath><clipPath id="clip-path-58"><path class="cls-1" d="M5.25,51.91a.91.91,0,0,0-.18.21c-.65,1.14,3.47,2,4.15,2.2,2.84.77,5,1.11,4.59,1.34a52.08,52.08,0,0,0,.7,7.09c2.8.25,5.42.23,6.28-.19s-1.19-1.84-1.19-1.84.54-.36.55-.81c0-.72-.77-.6-.69-1.24.05-.32.71-.57.81-.91a2.24,2.24,0,0,0-.6-2c-.46-.64-3.61-.57-4.62-.67a72.48,72.48,0,0,1-8-1.76c-2-.62-2-.88-1.82-1.45"/></clipPath><clipPath id="clip-path-59"><path class="cls-1" d="M12.29,56a17.43,17.43,0,0,1,5.6.54,1.68,1.68,0,0,1,.25,3c-1.1.47-4.07.34-4.93.21-2.4-.36-3.05-2.74-.92-3.8"/></clipPath><clipPath id="clip-path-60"><path class="cls-1" d="M13.13,59a17.66,17.66,0,0,1,4.9.41,1.19,1.19,0,0,1,.22,2.28,13.84,13.84,0,0,1-4.32.16c-2.1-.27-2.67-2.06-.8-2.85"/></clipPath><clipPath id="clip-path-61"><path class="cls-1" d="M13.54,59a22.67,22.67,0,0,1,4.54.23c1.07.24,1.13,1.15.58,1.6a18.39,18.39,0,0,1-3.82.06c-1.76-.19-2.39-1.2-1.3-1.89"/></clipPath><clipPath id="clip-path-62"><path class="cls-1" d="M12.61,56a19.63,19.63,0,0,1,5.3.51,1.33,1.33,0,0,1,.7,2.25,16.68,16.68,0,0,1-4.43.08c-2-.28-2.84-1.82-1.57-2.84"/></clipPath><clipPath id="clip-path-63"><path class="cls-1" d="M14.13,61a17.66,17.66,0,0,1,4.9.41,1.19,1.19,0,0,1,.22,2.28,13.84,13.84,0,0,1-4.32.16c-2.1-.27-2.67-2.06-.8-2.85"/></clipPath><clipPath id="clip-path-64"><path class="cls-1" d="M14.53,61a23.83,23.83,0,0,1,4.55.21c1.07.24,1.13,1.17.58,1.62a18.29,18.29,0,0,1-3.81.06c-1.76-.19-2.41-1.19-1.32-1.89"/></clipPath><clipPath id="clip-path-65"><path class="cls-1" d="M66,54.91c-1.56,0-8.33,1.23-8.33,1.23l-8.11,1.49-28.51-2L19,61.4s29.45,3.74,30,3.5S60.45,63,60.45,62.52,66,54.91,66,54.91"/></clipPath><clipPath id="clip-path-66"><path class="cls-1" d="M76,54.78c-.45-.72-2.89-1.15-6.32-.66S53,56.23,53,56.23s2.14,10.32,1.66,11.41S69.59,66.15,70.12,66a5.06,5.06,0,0,0,4.15-4.59A19,19,0,0,1,76,54.78"/></clipPath><clipPath id="clip-path-67"><path class="cls-1" d="M81,40.91c-1.64,8.71-1.21,13.27-1.21,13.27S66.76,59.5,67,58.86c-.1-1.41,1.19-3.44,4.16-4.69,2.73-3.46,3.73-10,3.73-10L81,40.91"/></clipPath><clipPath id="clip-path-68"><path class="cls-1" d="M71.29,54.5c-5.17,1.51-6.64,3-6.94,3.34-.5.57-5.14,10.3-8.45,24.06S50.42,102.08,50,103.18c-.91,2.52,22.73,2.16,22-.26-3.3-11.26,11.14-40.13,11-46.8,0-1.39-2.07-2.61-4.47-2.08-4,.86-8,6.52-11.42,5.89-.43-.08-.23-3.08,4.18-5.43"/></clipPath><clipPath id="clip-path-69"><path class="cls-1" d="M63,59.91c-.16.36,1.94,7,2.08,8,.06.42,11.75-1.8,12.49-1.68.56.09-2.16,8-5,13.47-1,1.85-3.34,7.26-3.67,7.84,0,0,1.33,9.87-1,11.24A21.53,21.53,0,0,1,61,101.66a36,36,0,0,1-11,.59c-.58,2.44,22.69,2.07,22-.32-2.51-8.49,5.25-27.12,9-38.44a21.51,21.51,0,0,1-5.15,1.05c-3.93.2-9.3.08-10.67-.7-.85-.47-1.69-2.46-2.21-3.93"/></clipPath><clipPath id="clip-path-70"><path class="cls-1" d="M93.86,25.91,94,32.85c.12,5.9-3.83,9.44-8.43,12.69l.75-1.9c-2.1,2.46-3,3-4.32,3.27.44-.36,1.67-4.44,2.34-6.46s4.24-13.72,4.24-13.72l5.28-.82"/></clipPath><clipPath id="clip-path-71"><polyline class="cls-1" points="68.86 15.12 64.39 23.43 64 33.95 64.11 38.15 65.36 42.65 64.47 48.56 65.63 49.18 68.5 49.91 72.89 49.63 79.77 47.58 85.81 43.17 89.47 33.67 92 19.58 81.08 14.91 68.86 15.12"/></clipPath><clipPath id="clip-path-72"><path class="cls-1" d="M65.19,47.25,65,48.53l1.16.64,2.86.74,4.39-.29,6.87-2.1,6-4.52L88,38.51a1.1,1.1,0,0,0-.17-.13,6.29,6.29,0,0,1-1.1-1.46,22.45,22.45,0,0,0-.14,2.35A28.77,28.77,0,0,1,85,42.91a80.61,80.61,0,0,1-8.34,4.57c-.65.17-6.93,1.64-7.22,1.64s-4.33-1.46-4.27-1.87h0"/></clipPath><clipPath id="clip-path-73"><path class="cls-1" d="M68.07,43.91a13.3,13.3,0,0,0-1.89,1.17s-.19.65-.18.7.39,1.09.79,1.1l3.21,0c-1.15-.26-2.41-.15-3.41-.46a1.08,1.08,0,0,1-.4-.67l.18-.66.68-.37,1-.84"/></clipPath><clipPath id="clip-path-74"><path class="cls-1" d="M67,19.93c-5.23-6.68,11.93-13,20.55-8.5,2.26,1.19,5.7,6.69,5.89,8.91,4.65,2,2.13,8.74-.52,10.84-.27.22-4.44-.81-4.44-.81-1.56,1.41-3.17,7.54-3.17,7.54l-1.62-.32S88,25.1,86.09,22,69.28,17.57,67,19.93"/></clipPath><clipPath id="clip-path-75"><path class="cls-1" d="M66.21,39.29s6.2.87,7.17.9A42.72,42.72,0,0,0,79,38.91s.24,1.25-1.9,4.23S66,44.43,66,44.43a3,3,0,0,0,.73-2.36,11.82,11.82,0,0,0-.52-2.78"/></clipPath><clipPath id="clip-path-76"><path class="cls-1" d="M79,41a12.68,12.68,0,0,1-1.44,2.25C76.15,45.09,71.81,45,69,44.78c.56-1.44,2.76-2.89,5.62-3.54A11.88,11.88,0,0,1,79,41"/></clipPath><clipPath id="clip-path-77"><path class="cls-1" d="M67.06,39.4a4.39,4.39,0,0,0,0,1.71c1.35,1.3,8.49.76,11.22.17A4.35,4.35,0,0,0,79,38.91a40.79,40.79,0,0,1-5.54,1.32c-.76,0-4.76-.59-6.39-.83"/></clipPath><clipPath id="clip-path-78"><path class="cls-1" d="M83.75,25.91c5.47,1,7.52,1.18,12.25,2.4,0,0-1.53,4.84-1.81,4.59S83,30.79,83,30.79l.75-4.88"/></clipPath><clipPath id="clip-path-79"><path class="cls-1" d="M96,29.11c-.37-.11-12.24-2.32-12.26-2.19S83,29.64,83,29.64l12.09,2.27.91-2.8"/></clipPath><clipPath id="clip-path-80"><path class="cls-1" d="M58.44,22.12c3.05-.58,23.38.08,25.11,1.48L85,27l-1.48,7.54a32.64,32.64,0,0,1-3.12,2.22c-7,.67-15-.51-22-1.1-.6,0-2.43-2.75-2.39-3.28s0-7.56,0-7.56l2.41-2.65"/></clipPath><clipPath id="clip-path-81"><path class="cls-1" d="M58.1,23.05c2.22-.47,21.07.3,21.4,1.49L80,27.4l-1,6.06a5.91,5.91,0,0,1-2.65,3.27c-5.7.62-12.79-.52-18.55-1.07-.49,0-1.78-2.35-1.75-2.84s0-7.55,0-7.55l2.08-2.22"/></clipPath><clipPath id="clip-path-82"><path class="cls-1" d="M78.71,33.41a9.32,9.32,0,0,1-2.54,2,16.47,16.47,0,0,1-4.93.51,39.32,39.32,0,0,1-6.22-1c.33-.08,9.57.15,10.75-.62s1.8-1.37,1.88-1.67,1.21-6,1.14-6.3-.8-2.56-.53-2.35S80,26.57,80,26.57l-1.29,6.84"/></clipPath><clipPath id="clip-path-83"><path class="cls-1" d="M87.78,31.07c1.09-1.88,4.14-1.09,5.6-.29,2.3,1.25-2.38,9.61-4.53,9.11-.51-.12-2.88-1.08-2.85-1.45s1.78-7.37,1.78-7.37"/></clipPath><clipPath id="clip-path-84"><path class="cls-1" d="M93,32.25c.24,1.37-2.14,5.34-2.8,5.59S88.08,37.7,88,37a2,2,0,0,1,.84-1.66A1.19,1.19,0,0,0,89,33.73c-.38-.45-.42-.69-.13-1.14,1.27-1.92,3.73-2.41,4.08-.34"/></clipPath><clipPath id="clip-path-85"><path class="cls-1" d="M67.68,20.86c-7.4-2.44-6.68-9.13-6.64-9a19.31,19.31,0,0,0,1.39,2.4c-2.12-3.92,4.06-6.32,4.05-6.32A5.17,5.17,0,0,0,66.11,10c.11-.3,4.24-1.82,7.42-2.08s6.42.64,5.68.57a3.76,3.76,0,0,0-1.88.75c5.11-.32,9.13,1.19,13.39,3.89,4.61,2.92,4.6,10.38,4,9.7-3.11-3.59-20.81-5.49-27-2"/></clipPath><clipPath id="clip-path-86"><path class="cls-1" d="M66,37.35c.47,1.12,5.21,1.92,5.9,1.4.48-.36-1.51-1-2-1.2-.69-.31-4.29-1.15-3.89-.2"/></clipPath><clipPath id="clip-path-87"><path class="cls-1" d="M64.47,14.67a5.29,5.29,0,0,0,2,4.17c0,.22-.86-.08-3-1.91A7.24,7.24,0,0,1,61,13.28a8.44,8.44,0,0,0,5.3,7,11.5,11.5,0,0,0,1.54.58A17.87,17.87,0,0,1,74,19.33c5.26.09,11.8,1.33,13,3.21.53.83.58,2.37.36,4.17l1.17.2.62-1.67L93,26.35a7.29,7.29,0,0,0-1.13-2,42,42,0,0,0-4.76-3.63s1.72-.2,3.15-.22a4.34,4.34,0,0,1,1.75.18c.78.44-1.59-2-5.21-3.47a10.86,10.86,0,0,0-7-.56c-.16.06,1.23-.61,2.69-1.22a13.34,13.34,0,0,1,2.85-1,21.8,21.8,0,0,0-6.56.21,10.09,10.09,0,0,0-1.72.46c-2.71,1-2.83,2.73-2.83,2.73s-.08.76-.33-1.21a3.35,3.35,0,0,1,.2-1.47,11.19,11.19,0,0,1,2-3.33c-.73.72-2.31,2.22-3.46,3.36a13,13,0,0,0-1.38,1.44c0,.14-.21-.19-.1-1.42a14.75,14.75,0,0,1,.31-2,5.69,5.69,0,0,1,.16-.59c.85-2.63,3.72-3.57,4.12-3.69S72,9,70.37,11s-1.46,2.38-1.71,3.34a13.8,13.8,0,0,0-.31,2.31c-.08.16-.35.07-1.14-.87q-.33-.39-.78-1a10.13,10.13,0,0,1-1.71-4.4s-.54,1-.25,4.28"/></clipPath><clipPath id="clip-path-88"><path class="cls-1" d="M75,61.07a32.42,32.42,0,0,0-.25-3.61c-.18-.69-7.52-.54-7.52-.54l-17.05,3.2L28.57,58.06,27,63.73l24.08,3.18L74.42,63.3,75,61.07"/></clipPath><clipPath id="clip-path-89"><path class="cls-1" d="M32.44,59.65c-.32-.59-1.27-2.85-2.32-3.51S28,54.88,28,54.88a5.93,5.93,0,0,1-1.63-3.24c-.2-1.86.68-2.85-.27-2.72S24.54,50.48,24,52.07a6.8,6.8,0,0,0,0,3.67S12.55,55,12.12,55.55s.36,1.42,1,1.75,8,1.49,8,1.49-1.17.86-1.17,1.66.68,1.09.42,1.46a1,1,0,0,0,.16,1.35c.53.57.85.86.85.86s-.16.7.27,1a5,5,0,0,0,1.53.69,26.32,26.32,0,0,0,5.72-.2A8.62,8.62,0,0,0,33,62.87a31.91,31.91,0,0,0-.56-3.22"/></clipPath><clipPath id="clip-path-90"><path class="cls-1" d="M31.3,63.28h0s0,0,0,0Zm.25.21.71-.56h0c-.21.18-.45.37-.72.56ZM12.43,54.91c-.17,0-.28.06-.31.11-.42.55.36,1.39,1,1.72s8,1.45,8,1.45-1.17.84-1.17,1.62.69,1.07.42,1.43-.35.77.17,1.32.84.85.84.85-.16.68.27,1a5.26,5.26,0,0,0,1.53.68,27.46,27.46,0,0,0,5.7-.2,6.84,6.84,0,0,0,2.74-1.37l19.2,2.42,14-2.06A2.13,2.13,0,0,0,65,62.8c-.14-1-13,2.34-14.42,2.42S33.5,63.4,32.53,63a1.69,1.69,0,0,1-.27-.11l0,0,0,0h0L32,62.8h0l0,0h0a.1.1,0,0,1,0,0h0a1.93,1.93,0,0,1-.21-.17h0l0,0h0l-.1-.11h0v0l0-.05v0h0l0,0h0v0h-.13s-.05,1.06-.05,1.27h-.19a4.19,4.19,0,0,1-.88.67,12,12,0,0,1-4.35.65c-1.62-.09-3.63-.35-3.86-.67s.45-.59.57-.61a5.78,5.78,0,0,0-1-.38s-.88-1.15-.7-1.53,1.33-.47,1.53-.45-1.42-.4-1.42-.4-.57-.22-.43-1.19,1.4-1.62,1.59-1.66S14,56.68,13.08,56.1a1.41,1.41,0,0,1-.65-1.19Z"/></clipPath><clipPath id="clip-path-91"><path class="cls-1" d="M79.2,53.92c-3.43.24-17.2,3.52-17.2,3.52s2.31,11.72,2.81,11.47S79.32,66.34,82,64.65c2.93-1.86,3.21-11.15-2.78-10.73"/></clipPath></defs><title>Asset 3</title><g id="Layer_2" data-name="Layer 2"><g id="Layer_1-2" data-name="Layer 1"><g class="cls-2"><rect class="cls-3" x="121" y="143.91" width="31" height="23"/></g><g class="cls-4"><rect class="cls-5" x="121" y="152.91" width="31" height="15"/></g><g class="cls-6"><rect class="cls-3" x="98" y="143.91" width="24" height="27"/></g><g class="cls-7"><rect class="cls-5" x="98" y="157.91" width="24" height="13"/></g><g class="cls-8"><rect class="cls-9" x="100" y="87.91" width="42" height="74"/></g><g class="cls-10"><rect class="cls-11" x="100" y="94.91" width="34" height="66"/></g><g class="cls-12"><rect class="cls-11" x="121" y="93.91" width="20" height="66"/></g><g class="cls-13"><rect class="cls-14" x="105" y="53.91" width="18" height="49"/></g><g class="cls-15"><rect class="cls-14" x="105" y="89.91" width="17" height="19"/></g><g class="cls-16"><rect class="cls-14" x="105" y="95.91" width="17" height="20"/></g><g class="cls-17"><rect class="cls-14" x="130" y="47.91" width="37" height="26"/></g><g class="cls-18"><rect class="cls-14" x="153" y="34.91" width="23" height="25"/></g><g class="cls-19"><rect class="cls-20" x="154" y="48.91" width="16" height="12"/></g><g class="cls-21"><rect class="cls-22" x="157" y="35.91" width="18" height="24"/></g><g class="cls-23"><rect class="cls-14" x="160" y="46.91" width="14" height="13"/></g><g class="cls-24"><rect class="cls-25" x="160" y="46.91" width="14" height="13"/></g><g class="cls-26"><rect class="cls-14" x="160" y="43.91" width="15" height="14"/></g><g class="cls-27"><rect class="cls-25" x="160" y="43.91" width="15" height="14"/></g><g class="cls-28"><rect class="cls-14" x="160" y="41.91" width="13" height="15"/></g><g class="cls-29"><rect class="cls-25" x="160" y="41.91" width="13" height="15"/></g><g class="cls-30"><rect class="cls-14" x="159" y="40.91" width="13" height="15"/></g><g class="cls-31"><rect class="cls-25" x="159" y="40.91" width="13" height="15"/></g><g class="cls-32"><rect class="cls-14" x="154" y="41.91" width="18" height="16"/></g><g class="cls-33"><rect class="cls-34" x="155" y="43.91" width="17" height="14"/></g><g class="cls-35"><rect class="cls-3" x="106" y="49.91" width="45" height="58"/></g><g class="cls-36"><rect class="cls-14" x="117" y="40.91" width="20" height="25"/></g><g class="cls-37"><rect class="cls-14" x="106.3" y="9.58" width="39.48" height="45.16"/></g><g class="cls-38"><rect class="cls-39" x="100.33" width="51.62" height="37.61"/></g><g class="cls-40"><rect class="cls-41" x="104" y="19.91" width="22" height="17"/></g><g class="cls-42"><rect class="cls-43" x="103" y="20.91" width="19" height="14"/></g><g class="cls-44"><rect class="cls-14" x="103" y="23.91" width="19" height="20"/></g><g class="cls-45"><rect class="cls-46" x="110" y="24.91" width="35" height="32"/></g><g class="cls-47"><rect class="cls-3" x="110" y="16.91" width="44" height="26"/></g><g class="cls-48"><rect class="cls-49" x="120" y="35.91" width="22" height="16"/></g><g class="cls-50"><rect class="cls-51" x="120" y="36.91" width="19" height="14"/></g><g class="cls-52"><rect class="cls-53" x="120" y="35.91" width="21" height="13"/></g><g class="cls-54"><rect class="cls-55" x="116" y="16.91" width="38" height="25"/></g><g class="cls-56"><rect class="cls-57" x="100" y="8.91" width="17" height="23"/></g><g class="cls-58"><rect class="cls-57" x="107.23" y="0.05" width="44.72" height="30.74"/></g><g class="cls-59"><rect class="cls-57" x="107.07" width="38.69" height="17.82"/></g><g class="cls-60"><rect class="cls-61" x="105" y="25.91" width="15" height="17"/></g><g class="cls-62"><rect class="cls-63" x="116" y="18.91" width="27" height="22"/></g><g class="cls-64"><rect class="cls-20" x="117" y="45.91" width="19" height="21"/></g><g class="cls-65"><rect class="cls-66" x="106" y="56.91" width="37" height="51"/></g><g class="cls-67"><rect class="cls-66" x="130" y="57.91" width="18" height="17"/></g><g class="cls-68"><rect class="cls-69" x="110" y="24.91" width="35" height="32"/></g><g class="cls-70"><rect class="cls-20" x="139" y="50.91" width="27" height="23"/></g><g class="cls-71"><rect class="cls-66" x="106" y="50.91" width="20" height="25"/></g><g class="cls-72"><rect class="cls-20" x="105" y="66.91" width="13" height="47"/></g><g class="cls-73"><rect class="cls-74" x="23" y="148.91" width="30" height="22"/></g><g class="cls-75"><rect class="cls-5" x="23" y="156.91" width="31" height="14"/></g><g class="cls-76"><rect class="cls-74" x="53" y="148.91" width="30" height="22"/></g><g class="cls-77"><rect class="cls-5" x="53" y="156.91" width="31" height="14"/></g><g class="cls-78"><rect class="cls-3" x="31" y="89.91" width="53" height="75"/></g><g class="cls-79"><rect class="cls-80" x="53" y="91.91" width="31" height="74"/></g><g class="cls-81"><rect class="cls-80" x="31" y="96.91" width="32" height="69"/></g><g class="cls-82"><rect class="cls-83" y="40.91" width="33" height="28"/></g><g class="cls-84"><rect class="cls-85" y="46.91" width="26" height="21"/></g><g class="cls-86"><rect class="cls-87" x="6" y="50.91" width="18" height="14"/></g><g class="cls-88"><rect class="cls-87" x="7" y="53.91" width="17" height="13"/></g><g class="cls-89"><rect class="cls-83" x="8" y="53.91" width="16" height="12"/></g><g class="cls-90"><rect class="cls-83" x="7" y="50.91" width="17" height="13"/></g><g class="cls-91"><rect class="cls-87" x="8" y="55.91" width="17" height="13"/></g><g class="cls-92"><rect class="cls-83" x="9" y="55.91" width="16" height="12"/></g><g class="cls-93"><rect class="cls-83" x="14" y="49.91" width="57" height="20"/></g><g class="cls-94"><rect class="cls-95" x="48" y="48.91" width="33" height="24"/></g><g class="cls-96"><rect class="cls-14" x="62" y="35.91" width="24" height="28"/></g><g class="cls-97"><rect class="cls-98" x="45" y="48.91" width="43" height="61"/></g><g class="cls-99"><rect class="cls-100" x="45" y="54.91" width="41" height="54"/></g><g class="cls-101"><rect class="cls-5" x="77" y="20.91" width="22" height="31"/></g><g class="cls-102"><rect class="cls-14" x="59" y="9.91" width="38" height="45"/></g><g class="cls-103"><rect class="cls-104" x="60" y="31.91" width="33" height="23"/></g><g class="cls-105"><rect class="cls-106" x="61" y="38.91" width="14" height="13"/></g><g class="cls-107"><rect class="cls-5" x="61" y="4.91" width="40" height="38"/></g><g class="cls-108"><rect class="cls-49" x="61" y="33.91" width="23" height="16"/></g><g class="cls-109"><rect class="cls-51" x="64" y="35.91" width="20" height="14"/></g><g class="cls-110"><rect class="cls-53" x="62" y="33.91" width="22" height="13"/></g><g class="cls-111"><rect class="cls-41" x="78" y="20.91" width="23" height="17"/></g><g class="cls-112"><rect class="cls-43" x="78" y="21.91" width="23" height="15"/></g><g class="cls-113"><rect class="cls-3" x="51" y="16.91" width="39" height="25"/></g><g class="cls-114"><rect class="cls-55" x="51" y="17.91" width="34" height="24"/></g><g class="cls-115"><rect class="cls-63" x="60" y="18.91" width="25" height="22"/></g><g class="cls-116"><rect class="cls-14" x="81" y="24.91" width="18" height="20"/></g><g class="cls-117"><rect class="cls-61" x="83" y="25.91" width="15" height="17"/></g><g class="cls-118"><rect class="cls-5" x="56" y="2.91" width="44" height="25"/></g><g class="cls-119"><rect class="cls-85" x="61" y="31.91" width="16" height="12"/></g><g class="cls-120"><rect class="cls-121" x="56" y="3.91" width="42" height="28"/></g><g class="cls-122"><rect class="cls-14" x="22" y="51.91" width="58" height="20"/></g><g class="cls-123"><rect class="cls-14" x="7" y="43.91" width="31" height="27"/></g><g class="cls-124"><rect class="cls-85" x="7" y="49.91" width="63" height="21"/></g><g class="cls-125"><rect class="cls-98" x="57" y="48.91" width="32" height="25"/></g></g></g></svg>